<svg xmlns="http://www.w3.org/2000/svg" viewBox="0 0 1600 800">
  <path fill="#00000000" d="M0 0h1600v800H0z"/>
  <path fill="#00000009" d="M1600 -40 0 250V150L1600 -120z"/>
  <path fill="#00000010" d="M1600 60 0 350V250L1600 -40z"/>
  <path fill="#00000020" d="M1600 160 0 450V350L1655 50z"/>
  <path fill="#00000040" d="M1600 260 0 550V450l1655-300z"/>
  <path fill="#00000060" d="M1600 360 0 650V550l1655-300z"/>
  <path fill="#00000080" d="M1600 460 0 760V650l1655-300z"/>
  <path fill="#00000099" d="M1600 800H0v-40l1600-300z"/>
  <path fill="#00000070" d="M1600 900H0v-40l1600-300z"/>
  <path fill="#000000" d="M1600 1000H0v-40l1600-300z"/>
</svg>
